PathFileType	4	(X/Y/Z)	/Users/niels/Desktop/University/Third Semester/Perception and Action/Exam/Gymnastics Motion Tracking/Code for Gym Tracking/Analyzed Data/Start Salto/stsalto_bad_id1_1_Sports2D/stsalto_bad_id1_1_Sports2D_px_person00.trc
DataRate	CameraRate	NumFrames	NumMarkers	Units	OrigDataRate	OrigDataStartFrame	OrigNumFrames
29.774436090225564	29.774436090225564	11	22	m	29.774436090225564	83	133
Frame#	Time	Hip			RHip			RKnee			RAnkle			RBigToe			RSmallToe			RHeel			LHip			LKnee			LAnkle			LBigToe			LSmallToe			LHeel			Neck			Head			Nose			RShoulder			RElbow			RWrist			LShoulder			LElbow			LWrist		
		X1	Y1	Z1	X2	Y2	Z2	X3	Y3	Z3	X4	Y4	Z4	X5	Y5	Z5	X6	Y6	Z6	X7	Y7	Z7	X8	Y8	Z8	X9	Y9	Z9	X10	Y10	Z10	X11	Y11	Z11	X12	Y12	Z12	X13	Y13	Z13	X14	Y14	Z14	X15	Y15	Z15	X16	Y16	Z16	X17	Y17	Z17	X18	Y18	Z18	X19	Y19	Z19	X20	Y20	Z20	X21	Y21	Z21	X22	Y22	Z22
83	2.787626262626263	1.4949092616286455	-0.4112768584543352	0.0	1.5077997202925	-0.395546827822129	0.0	1.6245834905427123	-0.29532880713038046	0.0	1.7770754191973182	-0.294890371747147	0.0	1.7970888245300038	-0.27321229341891545	0.0	1.8037503824177705	-0.28591677232141505	0.0	1.797704603068922	-0.3461182592879024	0.0	1.506467012802672	-0.42218784726393477	0.0	1.6279170076169056	-0.41822429211713885	0.0	1.720044688312597	-0.5425537268305088	0.0	1.7690547795551144	-0.5347077122359654	0.0	1.7622064638396224	-0.5413188425235602	0.0	1.729739143965308	-0.5590696265189602	0.0	1.3330026184885169	-0.3122967309685769	0.0	1.3091864561667514	-0.2354458333923529	0.0	1.360721251081656	-0.2602879690308469	0.0	1.345174380790855	-0.3147977933588159	0.0	1.4003446106523465	-0.3484521724463086	0.0	1.4573071021815789	-0.29113649763880894	0.0	1.3085625347514795	-0.34491191532694476	0.0	1.2719754732852429	-0.363556661872768	0.0	1.2865321745556346	-0.33870511556842	0.0
84	2.8212121212121213	1.5041301022827351	-0.41613999469851465	0.0	1.5175201374534328	-0.39651198557077183	0.0	1.640218481408563	-0.30134057592275615	0.0	1.7979762707920592	-0.30654278718666156	0.0	1.8176656536573792	-0.2624503519037479	0.0	1.825441477646478	-0.2751867667834335	0.0	1.8181286605537734	-0.33910927170844324	0.0	1.5138266687518278	-0.43000860154396364	0.0	1.6395008849491348	-0.4509648327778479	0.0	1.7214430682686854	-0.576527297178578	0.0	1.771209662824182	-0.5778506042500933	0.0	1.7637207749742878	-0.5833371314413826	0.0	1.7280447850336889	-0.594497913149486	0.0	1.3456250961265268	-0.31101794944210837	0.0	1.3239503034026359	-0.23263087611933392	0.0	1.3742471085391825	-0.2602803361372117	0.0	1.3590058621095416	-0.3112443499020608	0.0	1.412565029895314	-0.3511756524843874	0.0	1.4719702772630519	-0.2979164342496122	0.0	1.320133218844624	-0.344568146219575	0.0	1.278628912928642	-0.36885679715426184	0.0	1.3023080917934124	-0.3388548240748713	0.0
85	2.85479797979798	1.514356736226145	-0.4208735415150291	0.0	1.527519828286159	-0.39954965022052275	0.0	1.6569661121802637	-0.3111170352222169	0.0	1.817078732286954	-0.3250423252696437	0.0	1.8395223725251566	-0.2659863276648944	0.0	1.8477873628133012	-0.2788962412354977	0.0	1.8361671603483347	-0.34397501018063414	0.0	1.5208996533914743	-0.43619924719006836	0.0	1.6491961250930542	-0.47871129938451823	0.0	1.7219007908948467	-0.6049320578960684	0.0	1.7711665671225327	-0.6139429010570396	0.0	1.7630840245966286	-0.6185514960963636	0.0	1.7261130200587356	-0.6244269480424434	0.0	1.3591535922335296	-0.31143619237010567	0.0	1.339816669266797	-0.23028096248646238	0.0	1.3885405574713379	-0.2613459881171754	0.0	1.3732663852150553	-0.3088324953764537	0.0	1.425142581431271	-0.3541731467817233	0.0	1.487190238025851	-0.3049679792741584	0.0	1.3326611527238528	-0.34544657113459515	0.0	1.289102678815915	-0.3746797869578866	0.0	1.3187252867739916	-0.3407447956426072	0.0
86	2.8883838383838385	1.5254809343080422	-0.425259880836743	0.0	1.5382730872068833	-0.40397236897354394	0.0	1.674510024875016	-0.3238916094808382	0.0	1.8342712901231437	-0.349119440741974	0.0	1.8624422401958705	-0.28353142484364535	0.0	1.8701193056713519	-0.29684932582222096	0.0	1.8520737631718212	-0.3604638775616875	0.0	1.5284108314010605	-0.4410018548088525	0.0	1.6570778571082565	-0.5013938625655215	0.0	1.721650023127621	-0.6285715881354869	0.0	1.7695538111508775	-0.6438305895688345	0.0	1.7608952694980136	-0.6479164665942354	0.0	1.7240639138432952	-0.6494501453305439	0.0	1.373396737972836	-0.3128993940753436	0.0	1.3564165545666378	-0.22834392717718988	0.0	1.4034623717076269	-0.26260595848560964	0.0	1.3880298984519883	-0.30768636280867667	0.0	1.4376319150310863	-0.3572036699476983	0.0	1.5027604205932656	-0.3119524877547021	0.0	1.3461437491789219	-0.3473140744784481	0.0	1.302550565519337	-0.38094533056014096	0.0	1.3348204856266814	-0.34530178589331	0.0
87	2.921969696969697	1.5370477604656858	-0.4291404236384495	0.0	1.5496857333761531	-0.4087687733965942	0.0	1.692074130251509	-0.33849227534457854	0.0	1.8493104103508466	-0.3766757985575446	0.0	1.8849057913377554	-0.31142894459866155	0.0	1.8910681448350535	-0.3253652981813793	0.0	1.8659162201415673	-0.38523476281062685	0.0	1.5365117589293198	-0.44477745625037446	0.0	1.6634397217358219	-0.5198068233599663	0.0	1.7208759064228176	-0.6485906068176892	0.0	1.7675855467539292	-0.6687512302193034	0.0	1.7582293037720371	-0.6725289811568186	0.0	1.7218251230450716	-0.6704631194285163	0.0	1.3878585921788071	-0.31483359141677786	0.0	1.3732406157948527	-0.22664452358287956	0.0	1.4186712924570486	-0.2635236373670531	0.0	1.4031328930516862	-0.30761426910190726	0.0	1.449779492972148	-0.36010821398122783	0.0	1.5183880771136022	-0.3184535718671046	0.0	1.3603254472864263	-0.3499527437601472	0.0	1.3179805120555759	-0.38766376329900964	0.0	1.3495430633267325	-0.35285916792158994	0.0
88	2.9555555555555557	1.5485584767519371	-0.4326337871978803	0.0	1.5612382950411918	-0.4132049153157756	0.0	1.7090888149366974	-0.3540447750483752	0.0	1.8621098179258004	-0.4061159947510877	0.0	1.904772437442456	-0.34598973971972674	0.0	1.9091243744085211	-0.3606042944845012	0.0	1.877759504585224	-0.41484082183223503	0.0	1.5448676257575014	-0.447965263657753	0.0	1.6686432416642245	-0.5349051798129245	0.0	1.7197596510236919	-0.666179999623123	0.0	1.7665273439830549	-0.6900309872553415	0.0	1.7562692676680332	-0.693413455229235	0.0	1.7193465030426467	-0.6884717615401714	0.0	1.4021708547490825	-0.316895846419972	0.0	1.3901018361262363	-0.22494591022226806	0.0	1.433924442586513	-0.2640821427454487	0.0	1.4183503535799298	-0.3080179279892166	0.0	1.4619157995120777	-0.3629223494710594	0.0	1.5340986175912952	-0.32432230889160296	0.0	1.3749389558445984	-0.35310879743331913	0.0	1.3345196033894724	-0.3947975257083846	0.0	1.3622285109814507	-0.3628743101644133	0.0
89	2.989141414141414	1.559857478698844	-0.43614238263870625	0.0	1.5727430356172385	-0.4171077554042119	0.0	1.7255228026843137	-0.37031389804435494	0.0	1.8728372345758124	-0.4367382098456123	0.0	1.9203988238124268	-0.38482211555508933	0.0	1.9233448934998532	-0.3999068385219587	0.0	1.8877397789053678	-0.44701720161888736	0.0	1.5533518633833738	-0.4511760779078062	0.0	1.6730395277954033	-0.5477462968237264	0.0	1.7184687635260978	-0.6824000421101117	0.0	1.766991353185838	-0.7090583774044606	0.0	1.7557446416846019	-0.7116913915476364	0.0	1.7166271495833072	-0.7045651205585945	0.0	1.4164219089700616	-0.31883729016075024	0.0	1.4071221788616777	-0.22326575573214869	0.0	1.449299425510218	-0.2645310934506012	0.0	1.4337448949283995	-0.3082848113400915	0.0	1.4748368005074055	-0.3657311272494543	0.0	1.550204116614538	-0.3297895809543572	0.0	1.3899186601666067	-0.3564514327570638	0.0	1.3516723375906678	-0.4022559469220052	0.0	1.3731144544415161	-0.3743089380336657	0.0
90	3.022727272727273	1.5710887601008543	-0.4401186406475104	0.0	1.5844873170690672	-0.420793259990309	0.0	1.7415995133038547	-0.38742666530861	0.0	1.881706119956489	-0.468104376176576	0.0	1.931508806816871	-0.42640420759507536	0.0	1.933817303677305	-0.4413967850448277	0.0	1.895841239455316	-0.4803720880933432	0.0	1.5621892641503319	-0.4550440548739874	0.0	1.676894296784278	-0.5594208776525481	0.0	1.7171822788260616	-0.6978226616727653	0.0	1.7686776130260369	-0.7269412588546882	0.0	1.7565793828459448	-0.7283965650798033	0.0	1.7137854037422715	-0.7195312551547453	0.0	1.4308977769550262	-0.32051348618839764	0.0	1.424244263900966	-0.22198062507225658	0.0	1.4649329830378126	-0.2651742575808006	0.0	1.4495752156403485	-0.30823826359430734	0.0	1.4891934605367252	-0.36853122354471923	0.0	1.5669416100130857	-0.3352650735131244	0.0	1.405228846657633	-0.35970149450985317	0.0	1.369148800766285	-0.40987712237376006	0.0	1.383049100022452	-0.3862799715815475	0.0
91	3.0563131313131313	1.582349466243218	-0.44474600110268375	0.0	1.5967216470735826	-0.4246822241116898	0.0	1.757281913098012	-0.4053892937288515	0.0	1.8887399453983331	-0.49941012075083313	0.0	1.9387653256448132	-0.4691284965384387	0.0	1.9412026245340757	-0.48319522941593634	0.0	1.9017819937993832	-0.5136745935031303	0.0	1.5714943707944866	-0.4598691062830511	0.0	1.6802841020333998	-0.5707327262731502	0.0	1.7161039868631096	-0.712394364480401	0.0	1.7708205633939949	-0.743933600946422	0.0	1.7581528424911264	-0.7439553289106423	0.0	1.7111560942920108	-0.7335492894320831	0.0	1.4456638077932078	-0.3219674522629401	0.0	1.4410109449195554	-0.2215241273208589	0.0	1.480683036732037	-0.26623497225187664	0.0	1.4659258108751394	-0.30820506242110013	0.0	1.5050693080992639	-0.37128458674600484	0.0	1.5843241417764773	-0.3410408617692046	0.0	1.420611929465541	-0.3627772693492653	0.0	1.386653739153325	-0.41738640942665617	0.0	1.3928621533518424	-0.3982871363740824	0.0
92	3.08989898989899	1.5935493872794366	-0.4498154398273818	0.0	1.6093375622931314	-0.4289590937637446	0.0	1.7721823096256581	-0.4240252360411852	0.0	1.8939083896616098	-0.5297843433109974	0.0	1.9427850894127372	-0.5111765594853068	0.0	1.9459766440843733	-0.5235023166689045	0.0	1.90540573674365	-0.5459121035531334	0.0	1.5810139613726093	-0.46544598164801204	0.0	1.6831489322855684	-0.58200235765035	0.0	1.7153967246643187	-0.725858760596856	0.0	1.7727757334175451	-0.7592964951404658	0.0	1.7597732305724447	-0.7580118970235008	0.0	1.7092042205003293	-0.7465153913868702	0.0	1.4606477604293844	-0.32336387957417373	0.0	1.4570430255766214	-0.22201261221032617	0.0	1.4962706565689476	-0.2676946323677043	0.0	1.4827014431700112	-0.3087043128258153	0.0	1.5221830484851453	-0.3740705164455895	0.0	1.602454759949903	-0.3471667705637633	0.0	1.4357975148019921	-0.36573581580165243	0.0	1.4041226426454023	-0.4244765149963144	0.0	1.4032765518892172	-0.4101005193060685	0.0
93	3.1234848484848485	1.6045915995604925	-0.45497706962763224	0.0	1.622075290319593	-0.433620370576851	0.0	1.7858542777069673	-0.4432473975427442	0.0	1.897381892580677	-0.5588924917417452	0.0	1.943873327027193	-0.5511439176232248	0.0	1.9482689395806245	-0.561208008572703	0.0	1.907017356671813	-0.5766815810358713	0.0	1.590416569297997	-0.4713337933228739	0.0	1.6855390616861563	-0.5932002532895134	0.0	1.7150994017955528	-0.7381633735362121	0.0	1.7740857236382073	-0.7718709711269552	0.0	1.7607565223940553	-0.7698365639394198	0.0	1.708276249243372	-0.7584657996022331	0.0	1.475970759949372	-0.32484109316187826	0.0	1.4725100151630122	-0.22327990552297405	0.0	1.5116198678941357	-0.26932055069307487	0.0	1.4999498707661663	-0.31012452498667037	0.0	1.540356624607463	-0.37708384721324484	0.0	1.6217467370046637	-0.3535055373849376	0.0	1.45085403553983	-0.36855934260371187	0.0	1.4218843042341678	-0.43095574509587165	0.0	1.415048061976028	-0.42169185190520564	0.0
